<?xml version="1.0" encoding="UTF-8" standalone="no"?>
<!DOCTYPE svg PUBLIC "-//W3C//DTD SVG 1.1//EN" "http://www.w3.org/Graphics/SVG/1.1/DTD/svg11.dtd">
<svg width="100%" height="100%" viewBox="0 0 2363 2363" version="1.1" xmlns="http://www.w3.org/2000/svg" xmlns:xlink="http://www.w3.org/1999/xlink" xml:space="preserve" xmlns:serif="http://www.serif.com/" style="fill-rule:evenodd;clip-rule:evenodd;">
    <g transform="matrix(20.92067,0,0,20.92067,-743.599276,-806.361286)">
        <path d="M142,45.765L142,144.235C142,144.657 141.657,145 141.235,145L42.765,145C42.343,145 42,144.657 42,144.235L42,45.765C42,45.343 42.343,45 42.765,45L141.235,45C141.657,45 142,45.343 142,45.765Z" style="fill:rgb(251,234,210);"/>
    </g>
    <g transform="matrix(6.601388,-1.045557,1.045557,6.601388,-1096.898162,-254.464857)">
        <path d="M288,133.047L288,318.953C288,319.531 287.531,320 286.953,320L263.047,320C262.469,320 262,319.531 262,318.953L262,133.047C262,132.469 262.469,132 263.047,132L286.953,132C287.531,132 288,132.469 288,133.047Z" style="fill:rgb(246,206,99);"/>
    </g>
    <g transform="matrix(6.601388,-1.045557,1.045557,6.601388,-1096.898162,-254.464857)">
        <path d="M288,132.898L288,146.102C288,146.598 287.598,147 287.102,147L262.898,147C262.402,147 262,146.598 262,146.102L262,132.898C262,132.402 262.402,132 262.898,132L287.102,132C287.598,132 288,132.402 288,132.898Z" style="fill:rgb(252,230,160);"/>
    </g>
    <g transform="matrix(6.674422,-0.351571,0.351571,6.674422,-952.984239,-353.997723)">
        <path d="M364,113.047L364,312.953C364,313.531 363.531,314 362.953,314L338.047,314C337.469,314 337,313.531 337,312.953L337,113.047C337,112.469 337.469,112 338.047,112L362.953,112C363.531,112 364,112.469 364,113.047Z" style="fill:rgb(241,195,82);"/>
    </g>
    <g transform="matrix(6.674422,-0.351571,0.351571,6.674422,-952.984239,-353.997723)">
        <path d="M364,112.898L364,126.102C364,126.598 363.598,127 363.102,127L337.898,127C337.402,127 337,126.598 337,126.102L337,112.898C337,112.402 337.402,112 337.898,112L363.102,112C363.598,112 364,112.402 364,112.898Z" style="fill:rgb(251,224,147);"/>
    </g>
    <g transform="matrix(6.296715,2.241181,-2.241181,6.296715,-347.480233,-1273.071147)">
        <path d="M439,161.047L439,314.953C439,315.531 438.531,316 437.953,316L415.047,316C414.469,316 414,315.531 414,314.953L414,161.047C414,160.469 414.469,160 415.047,160L437.953,160C438.531,160 439,160.469 439,161.047Z" style="fill:rgb(244,201,93);"/>
    </g>
    <g transform="matrix(6.296715,2.241181,-2.241181,6.296715,-347.480233,-1273.071147)">
        <path d="M439,160.898L439,174.102C439,174.598 438.598,175 438.102,175L414.898,175C414.402,175 414,174.598 414,174.102L414,160.898C414,160.402 414.402,160 414.898,160L438.102,160C438.598,160 439,160.402 439,160.898Z" style="fill:rgb(252,230,160);"/>
    </g>
    <g transform="matrix(6.681625,0.165518,-0.134147,5.415245,-1081.088164,-251.84591)">
        <path d="M337,105.292L337,316.708C337,317.421 336.531,318 335.953,318L312.047,318C311.469,318 311,317.421 311,316.708L311,105.292C311,104.579 311.469,104 312.047,104L335.953,104C336.531,104 337,104.579 337,105.292Z" style="fill:rgb(250,214,121);"/>
    </g>
    <g transform="matrix(6.681625,0.165518,-0.165518,6.681625,-1077.825581,-383.549445)">
        <path d="M337,104.898L337,118.102C337,118.598 336.598,119 336.102,119L311.898,119C311.402,119 311,118.598 311,118.102L311,104.898C311,104.402 311.402,104 311.898,104L336.102,104C336.598,104 337,104.402 337,104.898Z" style="fill:rgb(254,230,164);"/>
    </g>
    <g transform="matrix(6.634897,-0.806012,0.806012,6.634897,-897.071179,-241.850792)">
        <path d="M313,117.047L313,314.953C313,315.531 312.531,316 311.953,316L287.047,316C286.469,316 286,315.531 286,314.953L286,117.047C286,116.469 286.469,116 287.047,116L311.953,116C312.531,116 313,116.469 313,117.047Z" style="fill:rgb(243,199,87);"/>
    </g>
    <g transform="matrix(6.634897,-0.806012,0.806012,6.634897,-897.071179,-241.850792)">
        <path d="M313,116.898L313,130.102C313,130.598 312.598,131 312.102,131L286.898,131C286.402,131 286,130.598 286,130.102L286,116.898C286,116.402 286.402,116 286.898,116L312.102,116C312.598,116 313,116.402 313,116.898Z" style="fill:rgb(251,224,147);"/>
    </g>
    <g transform="matrix(6.675894,0.322407,-0.322407,6.675894,-834.641157,-564.718323)">
        <path d="M389,125.047L389,318.953C389,319.531 388.531,320 387.953,320L364.047,320C363.469,320 363,319.531 363,318.953L363,125.047C363,124.469 363.469,124 364.047,124L387.953,124C388.531,124 389,124.469 389,125.047Z" style="fill:rgb(246,206,99);"/>
    </g>
    <g transform="matrix(6.675894,0.322407,-0.322407,6.675894,-834.641157,-564.718323)">
        <path d="M389,124.898L389,138.102C389,138.598 388.598,139 388.102,139L363.898,139C363.402,139 363,138.598 363,138.102L363,124.898C363,124.402 363.402,124 363.898,124L388.102,124C388.598,124 389,124.402 389,124.898Z" style="fill:rgb(252,230,160);"/>
    </g>
    <g transform="matrix(6.647008,0.699142,-0.699142,6.647008,-791.827042,-666.216218)">
        <path d="M415,143.047L415,310.953C415,311.531 414.531,312 413.953,312L390.047,312C389.469,312 389,311.531 389,310.953L389,143.047C389,142.469 389.469,142 390.047,142L413.953,142C414.531,142 415,142.469 415,143.047Z" style="fill:rgb(239,190,75);"/>
    </g>
    <g transform="matrix(6.647008,0.699142,-0.699142,6.647008,-791.827042,-666.216218)">
        <path d="M415,142.898L415,156.102C415,156.598 414.598,157 414.102,157L389.898,157C389.402,157 389,156.598 389,156.102L389,142.898C389,142.402 389.402,142 389.898,142L414.102,142C414.598,142 415,142.402 415,142.898Z" style="fill:rgb(251,224,147);"/>
    </g>
    <g transform="matrix(6.682752,0.111066,-0.090015,5.416159,-809.917742,-140.237099)">
        <path d="M337,105.292L337,316.708C337,317.421 336.531,318 335.953,318L312.047,318C311.469,318 311,317.421 311,316.708L311,105.292C311,104.579 311.469,104 312.047,104L335.953,104C336.531,104 337,104.579 337,105.292Z" style="fill:rgb(248,209,105);"/>
    </g>
    <g transform="matrix(6.682752,0.111066,-0.111066,6.682752,-807.728487,-271.962848)">
        <path d="M337,104.898L337,118.102C337,118.598 336.598,119 336.102,119L311.898,119C311.402,119 311,118.598 311,118.102L311,104.898C311,104.402 311.402,104 311.898,104L336.102,104C336.598,104 337,104.402 337,104.898Z" style="fill:rgb(254,230,164);"/>
    </g>
    <g transform="matrix(6.027199,-2.888666,2.341172,4.884853,-1673.506467,901.079562)">
        <path d="M337,105.292L337,316.708C337,317.421 336.531,318 335.953,318L312.047,318C311.469,318 311,317.421 311,316.708L311,105.292C311,104.579 311.469,104 312.047,104L335.953,104C336.531,104 337,104.579 337,105.292Z" style="fill:rgb(248,209,105);"/>
    </g>
    <g transform="matrix(6.027199,-2.888666,2.888666,6.027199,-1730.445832,782.27563)">
        <path d="M337,104.898L337,118.102C337,118.598 336.598,119 336.102,119L311.898,119C311.402,119 311,118.598 311,118.102L311,104.898C311,104.402 311.402,104 311.898,104L336.102,104C336.598,104 337,104.402 337,104.898Z" style="fill:rgb(254,230,164);"/>
    </g>
    <g transform="matrix(6.383126,-1.98172,1.98172,6.383126,-1175.21867,-13.460953)">
        <path d="M265,159.047L265,313.953C265,314.531 264.531,315 263.953,315L241.047,315C240.469,315 240,314.531 240,313.953L240,159.047C240,158.469 240.469,158 241.047,158L263.953,158C264.531,158 265,158.469 265,159.047Z" style="fill:rgb(239,190,75);"/>
    </g>
    <g transform="matrix(6.383126,-1.98172,1.98172,6.383126,-1175.21867,-13.460953)">
        <path d="M265,158.898L265,172.102C265,172.598 264.598,173 264.102,173L240.898,173C240.402,173 240,172.598 240,172.102L240,158.898C240,158.402 240.402,158 240.898,158L264.102,158C264.598,158 265,158.402 265,158.898Z" style="fill:rgb(251,224,147);"/>
    </g>
    <g transform="matrix(9.649092,0,0,9.116706,-1791.231592,-1375.949827)">
        <path d="M209.316,230.763L244,238C262,222 296,214 322,222C342,228 356,240 356,251C356,262 342,274 322,280C296,288 262,280 244,264L212.759,279.167L230.618,251.281L209.316,230.763Z" style="fill:rgb(207,138,56);fill-rule:nonzero;"/>
    </g>
    <g transform="matrix(9.595379,-1.016704,0.960607,9.065956,-2012.616155,-1109.852724)">
        <path d="M255,238C275,230 305,232 325,244C336,251 332,262 318,268C298,276 270,274 255,262C246,254 246,246 255,238Z" style="fill:rgb(230,169,84);fill-rule:nonzero;"/>
    </g>
    <g transform="matrix(9.649092,0,0,9.116706,-1782.704663,-1408.80194)">
        <circle cx="268" cy="262" r="3.2" style="fill:rgb(185,116,43);"/>
    </g>
    <g transform="matrix(9.649092,0,0,9.116706,-1765.88439,-1426.868149)">
        <circle cx="294" cy="246" r="3.6" style="fill:rgb(185,116,43);"/>
    </g>
    <g transform="matrix(9.649092,0,0,9.116706,-1603.288341,-1351.105825)">
        <circle cx="294" cy="246" r="3.6" style="fill:rgb(185,116,43);"/>
    </g>
    <g transform="matrix(6.418659,0,0,6.418659,-887.231483,-476.294723)">
        <path d="M226,238L452,238L398,402L290,402L226,238Z" style="fill:rgb(251,246,236);fill-rule:nonzero;"/>
    </g>
    <g transform="matrix(6.418659,0,0,6.418659,-887.231483,-476.294723)">
        <path d="M226,238L452,238L444,264L234,264L226,238Z" style="fill:rgb(240,231,210);fill-rule:nonzero;"/>
    </g>
    <g transform="matrix(6.418659,0,0,6.418659,-887.231483,-476.294723)">
        <path d="M284,270L312,392" style="fill:none;fill-rule:nonzero;stroke:rgb(229,217,191);stroke-width:2px;"/>
    </g>
    <g transform="matrix(6.418659,0,0,6.418659,-887.231483,-476.294723)">
        <path d="M340,270L340,396" style="fill:none;fill-rule:nonzero;stroke:rgb(229,217,191);stroke-width:2px;"/>
    </g>
    <g transform="matrix(6.418659,0,0,6.418659,-887.231483,-476.294723)">
        <path d="M396,270L372,392" style="fill:none;fill-rule:nonzero;stroke:rgb(229,217,191);stroke-width:2px;"/>
    </g>
    <g transform="matrix(6.418659,0,0,6.418659,-887.231483,-476.294723)">
        <path d="M226,238L452,238L398,402L290,402L226,238Z" style="fill:none;fill-rule:nonzero;stroke:rgb(217,203,172);stroke-width:2.5px;stroke-linejoin:round;"/>
    </g>
    <g transform="matrix(8.611328,-2.307398,2.355713,8.791642,-2642.61805,1195.948916)">
        <path d="M413,180C413,203.041 431.959,222 455,222C478.041,222 497,203.041 497,180L413,180Z" style="fill:rgb(246,210,79);fill-rule:nonzero;"/>
    </g>
    <g transform="matrix(8.611328,-2.307398,2.355713,8.791642,-2642.61805,1195.948916)">
        <path d="M413,180C413,203.041 431.959,222 455,222C478.041,222 497,203.041 497,180" style="fill:none;fill-rule:nonzero;stroke:rgb(251,239,160);stroke-width:7px;"/>
    </g>
    <g transform="matrix(8.611328,-2.307398,2.355713,8.791642,-2642.61805,1195.948916)">
        <path d="M455,180L427,208" style="fill:none;fill-rule:nonzero;stroke:rgb(251,246,236);stroke-width:2.5px;"/>
    </g>
    <g transform="matrix(8.611328,-2.307398,2.355713,8.791642,-2642.61805,1195.948916)">
        <path d="M455,180L455,222" style="fill:none;fill-rule:nonzero;stroke:rgb(251,246,236);stroke-width:2.5px;"/>
    </g>
    <g transform="matrix(8.611328,-2.307398,2.355713,8.791642,-2642.61805,1195.948916)">
        <path d="M455,180L483,208" style="fill:none;fill-rule:nonzero;stroke:rgb(251,246,236);stroke-width:2.5px;"/>
    </g>
    <g transform="matrix(20.92067,0,0,20.92067,-743.599276,-806.361286)">
        <path d="M142,45.765L142,144.235C142,144.657 141.657,145 141.235,145L42.765,145C42.343,145 42,144.657 42,144.235L42,45.765C42,45.343 42.343,45 42.765,45L141.235,45C141.657,45 142,45.343 142,45.765Z" style="fill:none;stroke:rgb(238,190,112);stroke-opacity:0.6;stroke-width:1.6px;"/>
    </g>
</svg>
